<?xml version="1.0" standalone="no"?>
<!-- Creator: fig2dev Version 3.2.6a -->
<!-- CreationDate: 2022-02-18 11:24:34 -->
<!-- Magnification: 1.05 -->
<svg	xmlns="http://www.w3.org/2000/svg"
	xmlns:xlink="http://www.w3.org/1999/xlink"
	width="371pt" height="155pt"
	viewBox="1338 2013 5874 2454">
<g fill="none">
<!-- Line -->
<rect x="3150" y="2025" width="2250" height="2430" rx="105" fill="#9999ff"
	stroke="#000000" stroke-width="8px"/>
<!-- Line -->
<rect x="1350" y="3375" width="1350" height="855" rx="105" fill="#99d2d2"
	stroke="#000000" stroke-width="8px"/>
<!-- Line -->
<rect x="1350" y="2250" width="1350" height="855" rx="105" fill="#99d2d2"
	stroke="#000000" stroke-width="8px"/>
<!-- Line -->
<rect x="5850" y="2250" width="1350" height="855" fill="#99d299"
	stroke="#000000" stroke-width="8px"/>
<!-- Line -->
<rect x="5850" y="3375" width="1350" height="855" fill="#99d299"
	stroke="#000000" stroke-width="8px"/>
<!-- Ellipse -->
<ellipse cx="4275" cy="2677" rx="1125" ry="562" fill="#bfbfff"
	stroke="#000000" stroke-width="8px"/>
<!-- Ellipse -->
<ellipse cx="4275" cy="3847" rx="1125" ry="562" fill="#bfbfff"
	stroke="#000000" stroke-width="8px"/>
<!-- Line -->
<defs>
<clipPath id="cp0">
	<path clip-rule="evenodd" d="M 1338,2013 H 7212 V 4467 H 1338 z
		M 5533,2835 5414,2871 5502,2784 5391,2878 5398,2889z"/>
</clipPath>
</defs>
<polyline points=" 5850,2610 5400,2880" clip-path="url(#cp0)"
	stroke="#000000" stroke-width="8px"/>
<!-- Forward arrow to point 5400,2880 -->
<polyline points=" 5533,2835 5414,2871 5502,2784"
	stroke="#000000" stroke-width="8px" stroke-miterlimit="8"/>
<!-- Line -->
<defs>
<clipPath id="cp1">
	<path clip-rule="evenodd" d="M 1338,2013 H 7212 V 4467 H 1338 z
		M 3011,3573 3134,3561 3032,3630 3159,3559 3154,3546z"/>
</clipPath>
</defs>
<polyline points=" 2655,3735 3150,3555" clip-path="url(#cp1)"
	stroke="#000000" stroke-width="8px"/>
<!-- Forward arrow to point 3150,3555 -->
<polyline points=" 3011,3573 3134,3561 3032,3630"
	stroke="#000000" stroke-width="8px" stroke-miterlimit="8"/>
<!-- Line -->
<defs>
<clipPath id="cp2">
	<path clip-rule="evenodd" d="M 1338,2013 H 7212 V 4467 H 1338 z
		M 3053,2779 3136,2871 3020,2829 3152,2889 3159,2878z"/>
</clipPath>
</defs>
<polyline points=" 2693,2575 3150,2880" clip-path="url(#cp2)"
	stroke="#000000" stroke-width="8px"/>
<!-- Forward arrow to point 3150,2880 -->
<polyline points=" 3053,2779 3136,2871 3020,2829"
	stroke="#000000" stroke-width="8px" stroke-miterlimit="8"/>
<!-- Line -->
<defs>
<clipPath id="cp3">
	<path clip-rule="evenodd" d="M 1338,2013 H 7212 V 4467 H 1338 z
		M 5509,3643 5415,3562 5536,3589 5397,3546 5391,3558z"/>
</clipPath>
</defs>
<polyline points=" 5850,3780 5400,3555" clip-path="url(#cp3)"
	stroke="#000000" stroke-width="8px"/>
<!-- Forward arrow to point 5400,3555 -->
<polyline points=" 5509,3643 5415,3562 5536,3589"
	stroke="#000000" stroke-width="8px" stroke-miterlimit="8"/>
<!-- Text -->
<text xml:space="preserve" x="1822" y="3870" fill="#000000" font-family="Times" font-style="normal" font-weight="normal" font-size="144" text-anchor="start">RNN</text>
<!-- Text -->
<text xml:space="preserve" x="1822" y="2745" fill="#000000" font-family="Times" font-style="normal" font-weight="normal" font-size="144" text-anchor="start">CNN</text>
<!-- Text -->
<text xml:space="preserve" x="6210" y="2880" fill="#000000" font-family="Times" font-style="normal" font-weight="normal" font-size="144" text-anchor="start">Platform</text>
<!-- Text -->
<text xml:space="preserve" x="6075" y="2565" fill="#000000" font-family="Times" font-style="normal" font-weight="normal" font-size="144" text-anchor="start">Single Node</text>
<!-- Text -->
<text xml:space="preserve" x="6210" y="4005" fill="#000000" font-family="Times" font-style="normal" font-weight="normal" font-size="144" text-anchor="start">Platform</text>
<!-- Text -->
<text xml:space="preserve" x="6075" y="3690" fill="#000000" font-family="Times" font-style="normal" font-weight="normal" font-size="144" text-anchor="start">Distributed</text>
<!-- Text -->
<text xml:space="preserve" x="3555" y="2520" fill="#000000" font-family="Times" font-style="normal" font-weight="normal" font-size="144" text-anchor="start">DNN Optimization</text>
<!-- Text -->
<text xml:space="preserve" x="3870" y="2880" fill="#000000" font-family="Times" font-style="normal" font-weight="normal" font-size="144" text-anchor="start">Techniques</text>
<!-- Text -->
<text xml:space="preserve" x="3465" y="3735" fill="#000000" font-family="Times" font-style="normal" font-weight="normal" font-size="144" text-anchor="start">Optimization Strategy</text>
<!-- Text -->
<text xml:space="preserve" x="4005" y="4050" fill="#000000" font-family="Times" font-style="normal" font-weight="normal" font-size="144" text-anchor="start">and Flow</text>
</g>
</svg>
